<svg xmlns="http://www.w3.org/2000/svg" viewBox="0 0 200 49.1"><defs><style>.cls-1{fill:#fff;}</style></defs><title>grouphero_logo</title><g id="Layer_2" data-name="Layer 2"><g id="Layer_1-2" data-name="Layer 1"><polygon class="cls-1" points="25.81 9.59 30.89 19.88 42.23 21.53 34.02 29.53 35.96 40.83 25.81 35.5 15.66 40.83 17.6 29.53 9.39 21.53 20.74 19.88 25.81 9.59"/><path class="cls-1" d="M25.81,2.47,18.56,17.16,2.35,19.52,14.08,31,11.31,47.1l14.5-7.63v1.24L9.86,49.1l3.05-17.77L0,18.75l17.84-2.59L25.81,0Z"/><path class="cls-1" d="M59.88,23h2.41v6.86a9.41,9.41,0,0,1-3,1.66,11.53,11.53,0,0,1-3.62.58A9.86,9.86,0,0,1,50.83,31a8.64,8.64,0,0,1-3.35-3.22,8.75,8.75,0,0,1-1.22-4.61,8.88,8.88,0,0,1,1.22-4.63,8.51,8.51,0,0,1,3.36-3.21,10.8,10.8,0,0,1,8.67-.47,7.76,7.76,0,0,1,2.93,2L60.88,18.4a7.08,7.08,0,0,0-5.1-2,7.38,7.38,0,0,0-3.6.87,6.33,6.33,0,0,0-2.51,2.41,7.14,7.14,0,0,0,0,6.94A6.49,6.49,0,0,0,52.18,29a7.22,7.22,0,0,0,3.58.88,7.49,7.49,0,0,0,4.12-1.13Z"/><path class="cls-1" d="M70.91,19.08a6.78,6.78,0,0,1,3-.6v2.34a3.82,3.82,0,0,0-.55,0A4.06,4.06,0,0,0,70.27,22a4.65,4.65,0,0,0-1.12,3.33v6.64H66.74V18.6h2.31v2.24A4.12,4.12,0,0,1,70.91,19.08Z"/><path class="cls-1" d="M78.88,31.2a6.44,6.44,0,0,1-2.48-2.43,7.35,7.35,0,0,1,0-7,6.25,6.25,0,0,1,2.48-2.41,7.74,7.74,0,0,1,7.13,0,6.33,6.33,0,0,1,2.46,2.41,7.35,7.35,0,0,1,0,7A6.52,6.52,0,0,1,86,31.2a7.66,7.66,0,0,1-7.13,0Zm5.87-1.82a4.17,4.17,0,0,0,1.59-1.66,5.49,5.49,0,0,0,0-4.91,4,4,0,0,0-1.59-1.64,4.85,4.85,0,0,0-4.6,0,4.1,4.1,0,0,0-1.61,1.64,5.4,5.4,0,0,0,0,4.91,4.28,4.28,0,0,0,1.61,1.66,4.78,4.78,0,0,0,4.6,0Z"/><path class="cls-1" d="M105.12,18.6V31.93h-2.29v-2a4.84,4.84,0,0,1-1.92,1.59,6,6,0,0,1-2.6.57,5.81,5.81,0,0,1-4.2-1.47,5.75,5.75,0,0,1-1.53-4.34V18.6H95V26a4.14,4.14,0,0,0,.93,2.93,3.49,3.49,0,0,0,2.67,1,4,4,0,0,0,3-1.16,4.53,4.53,0,0,0,1.11-3.27V18.6Z"/><path class="cls-1" d="M120.25,19.33a6.19,6.19,0,0,1,2.4,2.39,7.07,7.07,0,0,1,.87,3.55,7.1,7.1,0,0,1-.87,3.55,6.15,6.15,0,0,1-2.4,2.4,7,7,0,0,1-3.47.86,6.12,6.12,0,0,1-2.62-.56,5.44,5.44,0,0,1-2-1.6V36.8h-2.41V18.6H112v2.12a5.19,5.19,0,0,1,2-1.68,6.5,6.5,0,0,1,2.71-.56A7,7,0,0,1,120.25,19.33Zm-1.37,10.05a4.28,4.28,0,0,0,1.61-1.66,5.4,5.4,0,0,0,0-4.91,4.1,4.1,0,0,0-1.61-1.64,4.52,4.52,0,0,0-2.3-.58,4.44,4.44,0,0,0-2.27.59,4.26,4.26,0,0,0-1.61,1.65,4.82,4.82,0,0,0-.59,2.44,5,5,0,0,0,.58,2.45,4.19,4.19,0,0,0,1.6,1.66,4.76,4.76,0,0,0,4.59,0Z"/><path class="cls-1" d="M142.34,14.33v17.6h-2.51V24.08h-10.1v7.85h-2.52V14.33h2.52V21.9h10.1V14.33Z"/><path class="cls-1" d="M160.39,29.74v2.19H147.62V14.33H160v2.19h-9.91v5.4H159v2.14h-8.83v5.68Z"/><path class="cls-1" d="M176.22,31.93l-3.79-5.41c-.47,0-.84.05-1.11.05H167v5.36h-2.51V14.33h6.86A8.15,8.15,0,0,1,176.7,16a5.51,5.51,0,0,1,2,4.49,5.87,5.87,0,0,1-1,3.47A5.69,5.69,0,0,1,174.79,26L179,31.93Zm-1.33-8.52a3.6,3.6,0,0,0,1.26-2.95,3.54,3.54,0,0,0-1.26-2.92,5.66,5.66,0,0,0-3.64-1H167v7.92h4.28A5.66,5.66,0,0,0,174.89,23.41Z"/><path class="cls-1" d="M185.87,31a8.67,8.67,0,0,1-3.35-3.23,9.28,9.28,0,0,1,0-9.2,8.67,8.67,0,0,1,3.35-3.23,9.87,9.87,0,0,1,4.81-1.17,9.77,9.77,0,0,1,4.77,1.17,8.55,8.55,0,0,1,3.34,3.22A8.84,8.84,0,0,1,200,23.13a8.84,8.84,0,0,1-1.21,4.61A8.55,8.55,0,0,1,195.45,31a9.77,9.77,0,0,1-4.77,1.17A9.87,9.87,0,0,1,185.87,31ZM194.16,29a6.42,6.42,0,0,0,2.43-2.42,7.1,7.1,0,0,0,0-6.92,6.35,6.35,0,0,0-2.43-2.42,6.87,6.87,0,0,0-3.48-.88,7,7,0,0,0-3.51.88,6.29,6.29,0,0,0-2.46,2.42,7.1,7.1,0,0,0,0,6.92A6.36,6.36,0,0,0,187.17,29a7,7,0,0,0,3.51.88A6.87,6.87,0,0,0,194.16,29Z"/></g></g></svg>